<?xml version="1.0" standalone="no"?>
<svg xmlns:xlink="http://www.w3.org/1999/xlink" id="wave" style="transform:rotate(0deg); transition: 0.3s" viewBox="0 0 1440 310" version="1.1" xmlns="http://www.w3.org/2000/svg"><defs><linearGradient id="sw-gradient-0" x1="0" x2="0" y1="1" y2="0"><stop stop-color="rgba(246, 246, 246, 0)" offset="0%"/><stop stop-color="rgba(212, 225, 187, 1)" offset="100%"/></linearGradient></defs><path style="transform:translate(0, 0px); opacity:1" fill="url(#sw-gradient-0)" d="M0,31L30,46.5C60,62,120,93,180,103.3C240,114,300,103,360,113.7C420,124,480,155,540,170.5C600,186,660,186,720,180.8C780,176,840,165,900,134.3C960,103,1020,52,1080,36.2C1140,21,1200,41,1260,72.3C1320,103,1380,145,1440,149.8C1500,155,1560,124,1620,98.2C1680,72,1740,52,1800,62C1860,72,1920,114,1980,124C2040,134,2100,114,2160,113.7C2220,114,2280,134,2340,129.2C2400,124,2460,93,2520,98.2C2580,103,2640,145,2700,170.5C2760,196,2820,207,2880,201.5C2940,196,3000,176,3060,155C3120,134,3180,114,3240,108.5C3300,103,3360,114,3420,134.3C3480,155,3540,186,3600,186C3660,186,3720,155,3780,160.2C3840,165,3900,207,3960,232.5C4020,258,4080,269,4140,232.5C4200,196,4260,114,4290,72.3L4320,31L4320,310L4290,310C4260,310,4200,310,4140,310C4080,310,4020,310,3960,310C3900,310,3840,310,3780,310C3720,310,3660,310,3600,310C3540,310,3480,310,3420,310C3360,310,3300,310,3240,310C3180,310,3120,310,3060,310C3000,310,2940,310,2880,310C2820,310,2760,310,2700,310C2640,310,2580,310,2520,310C2460,310,2400,310,2340,310C2280,310,2220,310,2160,310C2100,310,2040,310,1980,310C1920,310,1860,310,1800,310C1740,310,1680,310,1620,310C1560,310,1500,310,1440,310C1380,310,1320,310,1260,310C1200,310,1140,310,1080,310C1020,310,960,310,900,310C840,310,780,310,720,310C660,310,600,310,540,310C480,310,420,310,360,310C300,310,240,310,180,310C120,310,60,310,30,310L0,310Z"/></svg>